<svg width="100" height="100" viewBox="0 0 100 100" fill="none" xmlns="http://www.w3.org/2000/svg">
<g clip-path="url(#clip0_44_2)">
<rect width="100" height="100" rx="5" fill="#DF7818"/>
<path d="M33.7 39.6V36H41.53V22.14H49.18V36H60.07V39.6H49.18V69.48C49.18 70.2 49.21 71.04 49.27 72C49.33 72.9 49.51 73.77 49.81 74.61C50.11 75.39 50.56 76.05 51.16 76.59C51.82 77.13 52.72 77.4 53.86 77.4C55.3 77.4 56.5 76.86 57.46 75.78C58.42 74.7 59.2 73.53 59.8 72.27L64.03 76.59C61.09 79.53 57.76 81 54.04 81C52.48 81 50.95 80.73 49.45 80.19C47.95 79.65 46.6 78.84 45.4 77.76C44.26 76.62 43.33 75.18 42.61 73.44C41.89 71.7 41.53 69.66 41.53 67.32V39.6H33.7Z" fill="white"/>
</g>
<defs>
<clipPath id="clip0_44_2">
<rect width="100" height="100" rx="5" fill="white"/>
</clipPath>
</defs>
</svg>
